<svg width="55" height="55" viewBox="0 0 55 55" fill="none" xmlns="http://www.w3.org/2000/svg">
<path d="M37.125 24.75C38.2708 24.75 39.2448 24.349 40.0469 23.5469C40.849 22.7448 41.25 21.7708 41.25 20.625C41.25 19.4792 40.849 18.5052 40.0469 17.7031C39.2448 16.901 38.2708 16.5 37.125 16.5C35.9792 16.5 35.0052 16.901 34.2031 17.7031C33.401 18.5052 33 19.4792 33 20.625C33 21.7708 33.401 22.7448 34.2031 23.5469C35.0052 24.349 35.9792 24.75 37.125 24.75ZM17.875 24.75C19.0208 24.75 19.9948 24.349 20.7969 23.5469C21.599 22.7448 22 21.7708 22 20.625C22 19.4792 21.599 18.5052 20.7969 17.7031C19.9948 16.901 19.0208 16.5 17.875 16.5C16.7292 16.5 15.7552 16.901 14.9531 17.7031C14.151 18.5052 13.75 19.4792 13.75 20.625C13.75 21.7708 14.151 22.7448 14.9531 23.5469C15.7552 24.349 16.7292 24.75 17.875 24.75ZM27.5 42.625C30.6167 42.625 33.4469 41.7427 35.9906 39.9781C38.5344 38.2135 40.3792 35.8875 41.525 33H36.9875C35.9792 34.6958 34.6385 36.0365 32.9656 37.0219C31.2927 38.0073 29.4708 38.5 27.5 38.5C25.5292 38.5 23.7073 38.0073 22.0344 37.0219C20.3615 36.0365 19.0208 34.6958 18.0125 33H13.475C14.6208 35.8875 16.4656 38.2135 19.0094 39.9781C21.5531 41.7427 24.3833 42.625 27.5 42.625ZM27.5 55C23.6958 55 20.1208 54.2781 16.775 52.8344C13.4292 51.3906 10.5187 49.4313 8.04375 46.9563C5.56875 44.4813 3.60938 41.5708 2.16563 38.225C0.721875 34.8792 0 31.3042 0 27.5C0 23.6958 0.721875 20.1208 2.16563 16.775C3.60938 13.4292 5.56875 10.5187 8.04375 8.04375C10.5187 5.56875 13.4292 3.60938 16.775 2.16563C20.1208 0.721875 23.6958 0 27.5 0C31.3042 0 34.8792 0.721875 38.225 2.16563C41.5708 3.60938 44.4813 5.56875 46.9563 8.04375C49.4313 10.5187 51.3906 13.4292 52.8344 16.775C54.2781 20.1208 55 23.6958 55 27.5C55 31.3042 54.2781 34.8792 52.8344 38.225C51.3906 41.5708 49.4313 44.4813 46.9563 46.9563C44.4813 49.4313 41.5708 51.3906 38.225 52.8344C34.8792 54.2781 31.3042 55 27.5 55ZM27.5 49.5C33.6417 49.5 38.8438 47.3688 43.1063 43.1063C47.3688 38.8438 49.5 33.6417 49.5 27.5C49.5 21.3583 47.3688 16.1563 43.1063 11.8938C38.8438 7.63125 33.6417 5.5 27.5 5.5C21.3583 5.5 16.1563 7.63125 11.8938 11.8938C7.63125 16.1563 5.5 21.3583 5.5 27.5C5.5 33.6417 7.63125 38.8438 11.8938 43.1063C16.1563 47.3688 21.3583 49.5 27.5 49.5Z" fill="white"/>
</svg>
