<svg width="52" height="52" viewBox="0 0 52 52" fill="none" xmlns="http://www.w3.org/2000/svg">
<path d="M38.6422 19.9175L28.1468 4.17434C27.6696 3.69728 26.9541 3.22021 26.2385 3.22021C25.5229 3.22021 24.8073 3.45875 24.3303 4.17434L13.8349 19.9175H2.38532C0.954128 19.9175 0 20.8716 0 22.3028C0 22.5413 0 22.7798 0 23.0184L5.9633 45.2019C6.44037 47.1101 8.34862 48.7798 10.4954 48.7798H41.5046C43.6514 48.7798 45.5596 47.3487 46.0367 45.2019L52 23.0184C52 22.7798 52 22.5413 52 22.3028C52 20.8716 51.0459 19.9175 49.6147 19.9175H38.6422ZM19.0826 19.9175L26.2385 9.42205L33.3945 19.9175H19.0826ZM26.2385 39C23.6147 39 21.4679 36.8532 21.4679 34.2294C21.4679 31.6055 23.6147 29.4587 26.2385 29.4587C28.8624 29.4587 31.0092 31.6055 31.0092 34.2294C31.0092 36.8532 28.8624 39 26.2385 39Z" fill="white"/>
</svg>
