<svg width="59" height="71" viewBox="0 0 59 71" fill="none" xmlns="http://www.w3.org/2000/svg">
<mask id="mask0_71_20" style="mask-type:alpha" maskUnits="userSpaceOnUse" x="0" y="12" width="59" height="59">
<rect y="12" width="59" height="59" fill="#D9D9D9"/>
</mask>
<g mask="url(#mask0_71_20)">
<path d="M12.2917 63.625C11.5951 63.625 10.9601 63.4099 10.3865 62.9797C9.81284 62.5495 9.42361 61.9861 9.21875 61.2896L2.33541 36.4604C2.13055 35.8868 2.22274 35.3542 2.61198 34.8625C3.00121 34.3709 3.52361 34.125 4.17916 34.125H16.5937L27.4104 18.0229C27.6153 17.6952 27.9021 17.4288 28.2708 17.224C28.6396 17.0191 29.0288 16.9167 29.4385 16.9167C29.8483 16.9167 30.2375 17.0191 30.6062 17.224C30.975 17.4288 31.2618 17.6952 31.4667 18.0229L42.2833 34.125H54.8208C55.4764 34.125 55.9988 34.3709 56.388 34.8625C56.7773 35.3542 56.8694 35.8868 56.6646 36.4604L49.7812 61.2896C49.5764 61.9861 49.1871 62.5495 48.6135 62.9797C48.0399 63.4099 47.4049 63.625 46.7083 63.625H12.2917ZM13.5208 58.7084H45.4792L50.8875 39.0417H8.1125L13.5208 58.7084ZM29.5 53.7917C30.8521 53.7917 32.0095 53.3103 32.9724 52.3474C33.9352 51.3846 34.4167 50.2271 34.4167 48.875C34.4167 47.5229 33.9352 46.3655 32.9724 45.4026C32.0095 44.4398 30.8521 43.9584 29.5 43.9584C28.1479 43.9584 26.9904 44.4398 26.0276 45.4026C25.0648 46.3655 24.5833 47.5229 24.5833 48.875C24.5833 50.2271 25.0648 51.3846 26.0276 52.3474C26.9904 53.3103 28.1479 53.7917 29.5 53.7917ZM22.5552 34.125H36.3833L29.4385 23.8L22.5552 34.125Z" fill="#1C1B1F"/>
</g>
<path d="M45.0948 30.5V14.3H48.9468V30.5H45.0948ZM38.7228 24.2V20.6H55.3188V24.2H38.7228Z" fill="black"/>
</svg>
