<svg width="60" height="60" viewBox="0 0 60 60" fill="none" xmlns="http://www.w3.org/2000/svg">
<mask id="mask0_201_34" style="mask-type:alpha" maskUnits="userSpaceOnUse" x="0" y="0" width="60" height="60">
<rect width="60" height="60" fill="#D9D9D9"/>
</mask>
<g mask="url(#mask0_201_34)">
<path d="M29.3332 53.2445L30.0008 53.843L30.6683 53.2445L34.2933 49.9945L34.2951 49.9929C38.5111 46.1943 42.004 42.911 44.7704 40.1446C47.5416 37.3733 49.765 34.8669 51.4285 32.6275C53.0912 30.3892 54.2857 28.2896 54.9752 26.3322C55.6581 24.3937 56.0008 22.4064 56.0008 20.3749C56.0008 16.2093 54.5941 12.679 51.7704 9.85533C48.9467 7.03163 45.4164 5.62494 41.2508 5.62494C38.9379 5.62494 36.7306 6.11534 34.6393 7.09425C32.8906 7.9128 31.3431 9.0129 30.0008 10.39C28.6584 9.0129 27.1109 7.9128 25.3622 7.09425C23.2709 6.11534 21.0636 5.62494 18.7508 5.62494C14.5851 5.62494 11.0549 7.03163 8.23115 9.85533C5.40744 12.679 4.00076 16.2093 4.00076 20.3749C4.00076 22.4064 4.34342 24.3937 5.02632 26.3322C5.71585 28.2896 6.91027 30.3892 8.57301 32.6275C10.2365 34.8669 12.4599 37.3733 15.2311 40.1446C17.9976 42.911 21.4904 46.1943 25.7064 49.9929L25.7082 49.9945L29.3332 53.2445ZM32.3758 18.4999H33.0747L33.3149 17.8435C33.8592 16.3556 34.8583 15.1134 36.3655 14.1148C37.8721 13.1168 39.4932 12.6249 41.2508 12.6249C43.5034 12.6249 45.3268 13.3652 46.7936 14.832C48.2605 16.2989 49.0008 18.1223 49.0008 20.3749C49.0008 21.6968 48.7369 23.0414 48.1955 24.4143C47.6617 25.7679 46.6838 27.3687 45.2165 29.2232C43.7504 31.0762 41.7391 33.2744 39.1715 35.8212C36.7489 38.2244 33.6929 41.0855 30.0008 44.4062C26.3086 41.0855 23.2527 38.2244 20.83 35.8212C18.2624 33.2744 16.2511 31.0762 14.785 29.2232C13.3177 27.3687 12.3398 25.7679 11.806 24.4143C11.2646 23.0414 11.0008 21.6968 11.0008 20.3749C11.0008 18.1223 11.741 16.2989 13.2079 14.832C14.6747 13.3652 16.4981 12.6249 18.7508 12.6249C20.5083 12.6249 22.1294 13.1168 23.636 14.1148C25.1433 15.1134 26.1423 16.3556 26.6866 17.8435L26.9268 18.4999H27.6258H32.3758Z" fill="#1C1B1F" stroke="white" stroke-width="2"/>
</g>
</svg>
